<svg width="15" height="16" viewBox="0 0 15 16" fill="none" xmlns="http://www.w3.org/2000/svg">
<path d="M10.6 4.35615C11.85 5.2249 12.7125 6.60615 12.8875 8.1999M2.18125 8.23115C2.25983 7.46689 2.50132 6.72834 2.88944 6.06529C3.27757 5.40224 3.80332 4.83009 4.43125 4.3874M5.11875 13.5874C5.84375 13.9562 6.66875 14.1624 7.5375 14.1624C8.375 14.1624 9.1625 13.9749 9.86875 13.6312M7.5375 5.3124C7.99831 5.3124 8.44025 5.12935 8.7661 4.8035C9.09194 4.47766 9.275 4.03572 9.275 3.5749C9.275 3.11409 9.09194 2.67215 8.7661 2.3463C8.44025 2.02046 7.99831 1.8374 7.5375 1.8374C7.07669 1.8374 6.63475 2.02046 6.3089 2.3463C5.98306 2.67215 5.8 3.11409 5.8 3.5749C5.8 4.03572 5.98306 4.47766 6.3089 4.8035C6.63475 5.12935 7.07669 5.3124 7.5375 5.3124ZM3.01875 12.9499C3.47956 12.9499 3.9215 12.7668 4.24735 12.441C4.57319 12.1152 4.75625 11.6732 4.75625 11.2124C4.75625 10.7516 4.57319 10.3096 4.24735 9.9838C3.9215 9.65796 3.47956 9.4749 3.01875 9.4749C2.55794 9.4749 2.116 9.65796 1.79015 9.9838C1.46431 10.3096 1.28125 10.7516 1.28125 11.2124C1.28125 11.6732 1.46431 12.1152 1.79015 12.441C2.116 12.7668 2.55794 12.9499 3.01875 12.9499ZM11.9813 12.9499C12.4421 12.9499 12.884 12.7668 13.2098 12.441C13.5357 12.1152 13.7188 11.6732 13.7188 11.2124C13.7188 10.7516 13.5357 10.3096 13.2098 9.9838C12.884 9.65796 12.4421 9.4749 11.9813 9.4749C11.5204 9.4749 11.0785 9.65796 10.7527 9.9838C10.4268 10.3096 10.2437 10.7516 10.2437 11.2124C10.2437 11.6732 10.4268 12.1152 10.7527 12.441C11.0785 12.7668 11.5204 12.9499 11.9813 12.9499Z" stroke="black" stroke-linecap="round" stroke-linejoin="round"/>
</svg>
